# xmcd
#
# Track frame offsets:
# 150
# 13189
# 26661
# 38532
# 52324
# 62825
# 74228
# 85090
# 96290
# 106955
# 116173
# 132929
# 145892
# 157560
# 170338
# 181636
#
# Disc length: 2582 seconds
#
# Revision: 0
# Processed by: cddbd v1.4PL0 Copyright (c) Steve Scherf et al.
# Submitted via: Audion 3.0.2 (http://www.panic.com/audion/)
#
DISCID=d90a1410
DTITLE=B.B. King - [2003] - {320} King Of The Blues [CD 3]
DYEAR=1900
DGENRE=
TTITLE0=Please Love Me
TTITLE1=Woke Up This Morning
TTITLE2=Shake It Up And Go
TTITLE3=Three O'Clock Blues
TTITLE4=That Ain't The Way To Do It
TTITLE5=She's Dynamite
TTITLE6=Fine Lookin' Woman
TTITLE7=B.B. Blues
TTITLE8=Don't You Want A Man Like Me?
TTITLE9=My Baby's Gone
TTITLE10=The Other Night Blues
TTITLE11=Mistreated Woman
TTITLE12=Take A Swing With Me
TTITLE13=Got The Blues
TTITLE14=When Your Baby Packs Up And Goes
TTITLE15=Miss Martha King
EXTD=
EXTT0=
EXTT1=
EXTT2=
EXTT3=
EXTT4=
EXTT5=
EXTT6=
EXTT7=
EXTT8=
EXTT9=
EXTT10=
EXTT11=
EXTT12=
EXTT13=
EXTT14=
EXTT15=
PLAYORDER=
